# xmcd
#
# Track frame offsets:
#	150
#	22635
#	36385
#	50170
#	59552
#	76210
#	76775
#	82167
#	102252
#	104212
#	119787
#	127372
#	140407
#	143630
#	158812
#	166452
#	184942
#
# Disc length: 2764 seconds
#
# Revision: 0
# Processed by: cddbd v1.5.2PL0 Copyright (c) Steve Scherf et al.
# Submitted via: audiograbber 1.83.01
#
DISCID=f80aca11
DTITLE=95 South - Quad City Knock
DYEAR=1993
DGENRE=Rap
TTITLE0=Hump Wit' It
TTITLE1=Booty Hop
TTITLE2=Whoot, There It Is
TTITLE3=Bring Out Da Ho's
TTITLE4=Do It Baby
TTITLE5=This Is A Test
TTITLE6=60 Seconds
TTITLE7=Let's Go To My Room
TTITLE8=Shouts Out
TTITLE9=One Time
TTITLE10=We Got Da Bass
TTITLE11=Shake Rattle N' Roll
TTITLE12=Booty Man Battle
TTITLE13=Da Kinda Bass
TTITLE14=95 South In Da House
TTITLE15=So Clear
TTITLE16=Ghetto Style
EXTD=www.RapMusicGuide.com
EXTT0=
EXTT1=
EXTT2=
EXTT3=
EXTT4=
EXTT5=
EXTT6=
EXTT7=
EXTT8=
EXTT9=
EXTT10=
EXTT11=
EXTT12=
EXTT13=
EXTT14=
EXTT15=
EXTT16=
PLAYORDER=
